<?xml version="1.0"?><svg xmlns="http://www.w3.org/2000/svg" width="144" height="144"><rect x="0" y="0" width="100%" height="100%" fill="rgb(178, 190, 195)" /><g fill="#222" style="opacity:0.080666666666667;" transform="translate(-24.0465, -24.0465) rotate(45, 24.0465, 24.0465)" ><rect x="17" y="0" width="17" height="51" /><rect x="0" y="17" width="51" height="17" /></g><g fill="#222" style="opacity:0.080666666666667;" transform="translate(120.2325, -24.0465) rotate(45, 24.0465, 24.0465)" ><rect x="17" y="0" width="17" height="51" /><rect x="0" y="17" width="51" height="17" /></g><g fill="#222" style="opacity:0.080666666666667;" transform="translate(-24.0465, 120.2325) rotate(45, 24.0465, 24.0465)" ><rect x="17" y="0" width="17" height="51" /><rect x="0" y="17" width="51" height="17" /></g><g fill="#222" style="opacity:0.080666666666667;" transform="translate(120.2325, 120.2325) rotate(45, 24.0465, 24.0465)" ><rect x="17" y="0" width="17" height="51" /><rect x="0" y="17" width="51" height="17" /></g><g fill="#222" style="opacity:0.11533333333333;" transform="translate(0, -12.02325) rotate(45, 24.0465, 24.0465)" ><rect x="17" y="0" width="17" height="51" /><rect x="0" y="17" width="51" height="17" /></g><g fill="#222" style="opacity:0.11533333333333;" transform="translate(0, 132.25575) rotate(45, 24.0465, 24.0465)" ><rect x="17" y="0" width="17" height="51" /><rect x="0" y="17" width="51" height="17" /></g><g fill="#222" style="opacity:0.098;" transform="translate(24.0465, -24.0465) rotate(45, 24.0465, 24.0465)" ><rect x="17" y="0" width="17" height="51" /><rect x="0" y="17" width="51" height="17" /></g><g fill="#222" style="opacity:0.098;" transform="translate(24.0465, 120.2325) rotate(45, 24.0465, 24.0465)" ><rect x="17" y="0" width="17" height="51" /><rect x="0" y="17" width="51" height="17" /></g><g fill="#222" style="opacity:0.080666666666667;" transform="translate(48.093, -12.02325) rotate(45, 24.0465, 24.0465)" ><rect x="17" y="0" width="17" height="51" /><rect x="0" y="17" width="51" height="17" /></g><g fill="#222" style="opacity:0.080666666666667;" transform="translate(48.093, 132.25575) rotate(45, 24.0465, 24.0465)" ><rect x="17" y="0" width="17" height="51" /><rect x="0" y="17" width="51" height="17" /></g><g fill="#ddd" style="opacity:0.14133333333333;" transform="translate(72.1395, -24.0465) rotate(45, 24.0465, 24.0465)" ><rect x="17" y="0" width="17" height="51" /><rect x="0" y="17" width="51" height="17" /></g><g fill="#ddd" style="opacity:0.14133333333333;" transform="translate(72.1395, 120.2325) rotate(45, 24.0465, 24.0465)" ><rect x="17" y="0" width="17" height="51" /><rect x="0" y="17" width="51" height="17" /></g><g fill="#ddd" style="opacity:0.054666666666667;" transform="translate(96.186, -12.02325) rotate(45, 24.0465, 24.0465)" ><rect x="17" y="0" width="17" height="51" /><rect x="0" y="17" width="51" height="17" /></g><g fill="#ddd" style="opacity:0.054666666666667;" transform="translate(96.186, 132.25575) rotate(45, 24.0465, 24.0465)" ><rect x="17" y="0" width="17" height="51" /><rect x="0" y="17" width="51" height="17" /></g><g fill="#222" style="opacity:0.063333333333333;" transform="translate(-24.0465, 0) rotate(45, 24.0465, 24.0465)" ><rect x="17" y="0" width="17" height="51" /><rect x="0" y="17" width="51" height="17" /></g><g fill="#222" style="opacity:0.063333333333333;" transform="translate(120.2325, 0) rotate(45, 24.0465, 24.0465)" ><rect x="17" y="0" width="17" height="51" /><rect x="0" y="17" width="51" height="17" /></g><g fill="#222" style="opacity:0.15;" transform="translate(0, 12.02325) rotate(45, 24.0465, 24.0465)" ><rect x="17" y="0" width="17" height="51" /><rect x="0" y="17" width="51" height="17" /></g><g fill="#ddd" style="opacity:0.14133333333333;" transform="translate(24.0465, 0) rotate(45, 24.0465, 24.0465)" ><rect x="17" y="0" width="17" height="51" /><rect x="0" y="17" width="51" height="17" /></g><g fill="#222" style="opacity:0.13266666666667;" transform="translate(48.093, 12.02325) rotate(45, 24.0465, 24.0465)" ><rect x="17" y="0" width="17" height="51" /><rect x="0" y="17" width="51" height="17" /></g><g fill="#222" style="opacity:0.098;" transform="translate(72.1395, 0) rotate(45, 24.0465, 24.0465)" ><rect x="17" y="0" width="17" height="51" /><rect x="0" y="17" width="51" height="17" /></g><g fill="#222" style="opacity:0.080666666666667;" transform="translate(96.186, 12.02325) rotate(45, 24.0465, 24.0465)" ><rect x="17" y="0" width="17" height="51" /><rect x="0" y="17" width="51" height="17" /></g><g fill="#ddd" style="opacity:0.14133333333333;" transform="translate(-24.0465, 24.0465) rotate(45, 24.0465, 24.0465)" ><rect x="17" y="0" width="17" height="51" /><rect x="0" y="17" width="51" height="17" /></g><g fill="#ddd" style="opacity:0.14133333333333;" transform="translate(120.2325, 24.0465) rotate(45, 24.0465, 24.0465)" ><rect x="17" y="0" width="17" height="51" /><rect x="0" y="17" width="51" height="17" /></g><g fill="#ddd" style="opacity:0.10666666666667;" transform="translate(0, 36.06975) rotate(45, 24.0465, 24.0465)" ><rect x="17" y="0" width="17" height="51" /><rect x="0" y="17" width="51" height="17" /></g><g fill="#ddd" style="opacity:0.124;" transform="translate(24.0465, 24.0465) rotate(45, 24.0465, 24.0465)" ><rect x="17" y="0" width="17" height="51" /><rect x="0" y="17" width="51" height="17" /></g><g fill="#ddd" style="opacity:0.10666666666667;" transform="translate(48.093, 36.06975) rotate(45, 24.0465, 24.0465)" ><rect x="17" y="0" width="17" height="51" /><rect x="0" y="17" width="51" height="17" /></g><g fill="#ddd" style="opacity:0.10666666666667;" transform="translate(72.1395, 24.0465) rotate(45, 24.0465, 24.0465)" ><rect x="17" y="0" width="17" height="51" /><rect x="0" y="17" width="51" height="17" /></g><g fill="#222" style="opacity:0.080666666666667;" transform="translate(96.186, 36.06975) rotate(45, 24.0465, 24.0465)" ><rect x="17" y="0" width="17" height="51" /><rect x="0" y="17" width="51" height="17" /></g><g fill="#ddd" style="opacity:0.054666666666667;" transform="translate(-24.0465, 48.093) rotate(45, 24.0465, 24.0465)" ><rect x="17" y="0" width="17" height="51" /><rect x="0" y="17" width="51" height="17" /></g><g fill="#ddd" style="opacity:0.054666666666667;" transform="translate(120.2325, 48.093) rotate(45, 24.0465, 24.0465)" ><rect x="17" y="0" width="17" height="51" /><rect x="0" y="17" width="51" height="17" /></g><g fill="#222" style="opacity:0.063333333333333;" transform="translate(0, 60.11625) rotate(45, 24.0465, 24.0465)" ><rect x="17" y="0" width="17" height="51" /><rect x="0" y="17" width="51" height="17" /></g><g fill="#222" style="opacity:0.046;" transform="translate(24.0465, 48.093) rotate(45, 24.0465, 24.0465)" ><rect x="17" y="0" width="17" height="51" /><rect x="0" y="17" width="51" height="17" /></g><g fill="#222" style="opacity:0.11533333333333;" transform="translate(48.093, 60.11625) rotate(45, 24.0465, 24.0465)" ><rect x="17" y="0" width="17" height="51" /><rect x="0" y="17" width="51" height="17" /></g><g fill="#222" style="opacity:0.080666666666667;" transform="translate(72.1395, 48.093) rotate(45, 24.0465, 24.0465)" ><rect x="17" y="0" width="17" height="51" /><rect x="0" y="17" width="51" height="17" /></g><g fill="#ddd" style="opacity:0.14133333333333;" transform="translate(96.186, 60.11625) rotate(45, 24.0465, 24.0465)" ><rect x="17" y="0" width="17" height="51" /><rect x="0" y="17" width="51" height="17" /></g><g fill="#222" style="opacity:0.11533333333333;" transform="translate(-24.0465, 72.1395) rotate(45, 24.0465, 24.0465)" ><rect x="17" y="0" width="17" height="51" /><rect x="0" y="17" width="51" height="17" /></g><g fill="#222" style="opacity:0.11533333333333;" transform="translate(120.2325, 72.1395) rotate(45, 24.0465, 24.0465)" ><rect x="17" y="0" width="17" height="51" /><rect x="0" y="17" width="51" height="17" /></g><g fill="#ddd" style="opacity:0.072;" transform="translate(0, 84.16275) rotate(45, 24.0465, 24.0465)" ><rect x="17" y="0" width="17" height="51" /><rect x="0" y="17" width="51" height="17" /></g><g fill="#222" style="opacity:0.098;" transform="translate(24.0465, 72.1395) rotate(45, 24.0465, 24.0465)" ><rect x="17" y="0" width="17" height="51" /><rect x="0" y="17" width="51" height="17" /></g><g fill="#ddd" style="opacity:0.072;" transform="translate(48.093, 84.16275) rotate(45, 24.0465, 24.0465)" ><rect x="17" y="0" width="17" height="51" /><rect x="0" y="17" width="51" height="17" /></g><g fill="#222" style="opacity:0.15;" transform="translate(72.1395, 72.1395) rotate(45, 24.0465, 24.0465)" ><rect x="17" y="0" width="17" height="51" /><rect x="0" y="17" width="51" height="17" /></g><g fill="#222" style="opacity:0.063333333333333;" transform="translate(96.186, 84.16275) rotate(45, 24.0465, 24.0465)" ><rect x="17" y="0" width="17" height="51" /><rect x="0" y="17" width="51" height="17" /></g><g fill="#222" style="opacity:0.15;" transform="translate(-24.0465, 96.186) rotate(45, 24.0465, 24.0465)" ><rect x="17" y="0" width="17" height="51" /><rect x="0" y="17" width="51" height="17" /></g><g fill="#222" style="opacity:0.15;" transform="translate(120.2325, 96.186) rotate(45, 24.0465, 24.0465)" ><rect x="17" y="0" width="17" height="51" /><rect x="0" y="17" width="51" height="17" /></g><g fill="#222" style="opacity:0.15;" transform="translate(-24.0465, -48.093) rotate(45, 24.0465, 24.0465)" ><rect x="17" y="0" width="17" height="51" /><rect x="0" y="17" width="51" height="17" /></g><g fill="#ddd" style="opacity:0.10666666666667;" transform="translate(0, 108.20925) rotate(45, 24.0465, 24.0465)" ><rect x="17" y="0" width="17" height="51" /><rect x="0" y="17" width="51" height="17" /></g><g fill="#ddd" style="opacity:0.10666666666667;" transform="translate(0, -36.06975) rotate(45, 24.0465, 24.0465)" ><rect x="17" y="0" width="17" height="51" /><rect x="0" y="17" width="51" height="17" /></g><g fill="#222" style="opacity:0.063333333333333;" transform="translate(24.0465, 96.186) rotate(45, 24.0465, 24.0465)" ><rect x="17" y="0" width="17" height="51" /><rect x="0" y="17" width="51" height="17" /></g><g fill="#222" style="opacity:0.063333333333333;" transform="translate(24.0465, -48.093) rotate(45, 24.0465, 24.0465)" ><rect x="17" y="0" width="17" height="51" /><rect x="0" y="17" width="51" height="17" /></g><g fill="#ddd" style="opacity:0.02;" transform="translate(48.093, 108.20925) rotate(45, 24.0465, 24.0465)" ><rect x="17" y="0" width="17" height="51" /><rect x="0" y="17" width="51" height="17" /></g><g fill="#ddd" style="opacity:0.02;" transform="translate(48.093, -36.06975) rotate(45, 24.0465, 24.0465)" ><rect x="17" y="0" width="17" height="51" /><rect x="0" y="17" width="51" height="17" /></g><g fill="#ddd" style="opacity:0.072;" transform="translate(72.1395, 96.186) rotate(45, 24.0465, 24.0465)" ><rect x="17" y="0" width="17" height="51" /><rect x="0" y="17" width="51" height="17" /></g><g fill="#ddd" style="opacity:0.072;" transform="translate(72.1395, -48.093) rotate(45, 24.0465, 24.0465)" ><rect x="17" y="0" width="17" height="51" /><rect x="0" y="17" width="51" height="17" /></g><g fill="#ddd" style="opacity:0.089333333333333;" transform="translate(96.186, 108.20925) rotate(45, 24.0465, 24.0465)" ><rect x="17" y="0" width="17" height="51" /><rect x="0" y="17" width="51" height="17" /></g><g fill="#ddd" style="opacity:0.089333333333333;" transform="translate(96.186, -36.06975) rotate(45, 24.0465, 24.0465)" ><rect x="17" y="0" width="17" height="51" /><rect x="0" y="17" width="51" height="17" /></g></svg>