<?xml version="1.0"?><svg xmlns="http://www.w3.org/2000/svg" width="320" height="432"><rect x="0" y="0" width="100%" height="100%" fill="rgb(129, 236, 236)" /><path d="M0 62 C 56 0, 104 0, 160 62 S 264 124, 320 62 S 424 0, 480, 62" fill="none" stroke="#222" style="opacity:0.11533333333333;stroke-width:12px;" transform="translate(-80, -93)" /><path d="M0 62 C 56 0, 104 0, 160 62 S 264 124, 320 62 S 424 0, 480, 62" fill="none" stroke="#222" style="opacity:0.11533333333333;stroke-width:12px;" transform="translate(-80, 339)" /><path d="M0 62 C 56 0, 104 0, 160 62 S 264 124, 320 62 S 424 0, 480, 62" fill="none" stroke="#222" style="opacity:0.080666666666667;stroke-width:12px;" transform="translate(-80, -81)" /><path d="M0 62 C 56 0, 104 0, 160 62 S 264 124, 320 62 S 424 0, 480, 62" fill="none" stroke="#222" style="opacity:0.080666666666667;stroke-width:12px;" transform="translate(-80, 351)" /><path d="M0 62 C 56 0, 104 0, 160 62 S 264 124, 320 62 S 424 0, 480, 62" fill="none" stroke="#222" style="opacity:0.063333333333333;stroke-width:12px;" transform="translate(-80, -69)" /><path d="M0 62 C 56 0, 104 0, 160 62 S 264 124, 320 62 S 424 0, 480, 62" fill="none" stroke="#222" style="opacity:0.063333333333333;stroke-width:12px;" transform="translate(-80, 363)" /><path d="M0 62 C 56 0, 104 0, 160 62 S 264 124, 320 62 S 424 0, 480, 62" fill="none" stroke="#ddd" style="opacity:0.037333333333333;stroke-width:12px;" transform="translate(-80, -57)" /><path d="M0 62 C 56 0, 104 0, 160 62 S 264 124, 320 62 S 424 0, 480, 62" fill="none" stroke="#ddd" style="opacity:0.037333333333333;stroke-width:12px;" transform="translate(-80, 375)" /><path d="M0 62 C 56 0, 104 0, 160 62 S 264 124, 320 62 S 424 0, 480, 62" fill="none" stroke="#222" style="opacity:0.063333333333333;stroke-width:12px;" transform="translate(-80, -45)" /><path d="M0 62 C 56 0, 104 0, 160 62 S 264 124, 320 62 S 424 0, 480, 62" fill="none" stroke="#222" style="opacity:0.063333333333333;stroke-width:12px;" transform="translate(-80, 387)" /><path d="M0 62 C 56 0, 104 0, 160 62 S 264 124, 320 62 S 424 0, 480, 62" fill="none" stroke="#222" style="opacity:0.15;stroke-width:12px;" transform="translate(-80, -33)" /><path d="M0 62 C 56 0, 104 0, 160 62 S 264 124, 320 62 S 424 0, 480, 62" fill="none" stroke="#222" style="opacity:0.15;stroke-width:12px;" transform="translate(-80, 399)" /><path d="M0 62 C 56 0, 104 0, 160 62 S 264 124, 320 62 S 424 0, 480, 62" fill="none" stroke="#ddd" style="opacity:0.10666666666667;stroke-width:12px;" transform="translate(-80, -21)" /><path d="M0 62 C 56 0, 104 0, 160 62 S 264 124, 320 62 S 424 0, 480, 62" fill="none" stroke="#ddd" style="opacity:0.10666666666667;stroke-width:12px;" transform="translate(-80, 411)" /><path d="M0 62 C 56 0, 104 0, 160 62 S 264 124, 320 62 S 424 0, 480, 62" fill="none" stroke="#222" style="opacity:0.063333333333333;stroke-width:12px;" transform="translate(-80, -9)" /><path d="M0 62 C 56 0, 104 0, 160 62 S 264 124, 320 62 S 424 0, 480, 62" fill="none" stroke="#222" style="opacity:0.063333333333333;stroke-width:12px;" transform="translate(-80, 423)" /><path d="M0 62 C 56 0, 104 0, 160 62 S 264 124, 320 62 S 424 0, 480, 62" fill="none" stroke="#ddd" style="opacity:0.072;stroke-width:12px;" transform="translate(-80, 3)" /><path d="M0 62 C 56 0, 104 0, 160 62 S 264 124, 320 62 S 424 0, 480, 62" fill="none" stroke="#ddd" style="opacity:0.072;stroke-width:12px;" transform="translate(-80, 435)" /><path d="M0 62 C 56 0, 104 0, 160 62 S 264 124, 320 62 S 424 0, 480, 62" fill="none" stroke="#222" style="opacity:0.063333333333333;stroke-width:12px;" transform="translate(-80, 15)" /><path d="M0 62 C 56 0, 104 0, 160 62 S 264 124, 320 62 S 424 0, 480, 62" fill="none" stroke="#222" style="opacity:0.063333333333333;stroke-width:12px;" transform="translate(-80, 447)" /><path d="M0 62 C 56 0, 104 0, 160 62 S 264 124, 320 62 S 424 0, 480, 62" fill="none" stroke="#222" style="opacity:0.046;stroke-width:12px;" transform="translate(-80, 27)" /><path d="M0 62 C 56 0, 104 0, 160 62 S 264 124, 320 62 S 424 0, 480, 62" fill="none" stroke="#222" style="opacity:0.046;stroke-width:12px;" transform="translate(-80, 459)" /><path d="M0 62 C 56 0, 104 0, 160 62 S 264 124, 320 62 S 424 0, 480, 62" fill="none" stroke="#ddd" style="opacity:0.124;stroke-width:12px;" transform="translate(-80, 39)" /><path d="M0 62 C 56 0, 104 0, 160 62 S 264 124, 320 62 S 424 0, 480, 62" fill="none" stroke="#ddd" style="opacity:0.124;stroke-width:12px;" transform="translate(-80, 471)" /><path d="M0 62 C 56 0, 104 0, 160 62 S 264 124, 320 62 S 424 0, 480, 62" fill="none" stroke="#222" style="opacity:0.063333333333333;stroke-width:12px;" transform="translate(-80, 51)" /><path d="M0 62 C 56 0, 104 0, 160 62 S 264 124, 320 62 S 424 0, 480, 62" fill="none" stroke="#222" style="opacity:0.063333333333333;stroke-width:12px;" transform="translate(-80, 483)" /><path d="M0 62 C 56 0, 104 0, 160 62 S 264 124, 320 62 S 424 0, 480, 62" fill="none" stroke="#222" style="opacity:0.11533333333333;stroke-width:12px;" transform="translate(-80, 63)" /><path d="M0 62 C 56 0, 104 0, 160 62 S 264 124, 320 62 S 424 0, 480, 62" fill="none" stroke="#222" style="opacity:0.11533333333333;stroke-width:12px;" transform="translate(-80, 495)" /><path d="M0 62 C 56 0, 104 0, 160 62 S 264 124, 320 62 S 424 0, 480, 62" fill="none" stroke="#ddd" style="opacity:0.054666666666667;stroke-width:12px;" transform="translate(-80, 75)" /><path d="M0 62 C 56 0, 104 0, 160 62 S 264 124, 320 62 S 424 0, 480, 62" fill="none" stroke="#ddd" style="opacity:0.054666666666667;stroke-width:12px;" transform="translate(-80, 507)" /><path d="M0 62 C 56 0, 104 0, 160 62 S 264 124, 320 62 S 424 0, 480, 62" fill="none" stroke="#222" style="opacity:0.063333333333333;stroke-width:12px;" transform="translate(-80, 87)" /><path d="M0 62 C 56 0, 104 0, 160 62 S 264 124, 320 62 S 424 0, 480, 62" fill="none" stroke="#222" style="opacity:0.063333333333333;stroke-width:12px;" transform="translate(-80, 519)" /><path d="M0 62 C 56 0, 104 0, 160 62 S 264 124, 320 62 S 424 0, 480, 62" fill="none" stroke="#222" style="opacity:0.15;stroke-width:12px;" transform="translate(-80, 99)" /><path d="M0 62 C 56 0, 104 0, 160 62 S 264 124, 320 62 S 424 0, 480, 62" fill="none" stroke="#222" style="opacity:0.15;stroke-width:12px;" transform="translate(-80, 531)" /><path d="M0 62 C 56 0, 104 0, 160 62 S 264 124, 320 62 S 424 0, 480, 62" fill="none" stroke="#222" style="opacity:0.080666666666667;stroke-width:12px;" transform="translate(-80, 111)" /><path d="M0 62 C 56 0, 104 0, 160 62 S 264 124, 320 62 S 424 0, 480, 62" fill="none" stroke="#222" style="opacity:0.080666666666667;stroke-width:12px;" transform="translate(-80, 543)" /><path d="M0 62 C 56 0, 104 0, 160 62 S 264 124, 320 62 S 424 0, 480, 62" fill="none" stroke="#222" style="opacity:0.063333333333333;stroke-width:12px;" transform="translate(-80, 123)" /><path d="M0 62 C 56 0, 104 0, 160 62 S 264 124, 320 62 S 424 0, 480, 62" fill="none" stroke="#222" style="opacity:0.063333333333333;stroke-width:12px;" transform="translate(-80, 555)" /><path d="M0 62 C 56 0, 104 0, 160 62 S 264 124, 320 62 S 424 0, 480, 62" fill="none" stroke="#222" style="opacity:0.13266666666667;stroke-width:12px;" transform="translate(-80, 135)" /><path d="M0 62 C 56 0, 104 0, 160 62 S 264 124, 320 62 S 424 0, 480, 62" fill="none" stroke="#222" style="opacity:0.13266666666667;stroke-width:12px;" transform="translate(-80, 567)" /><path d="M0 62 C 56 0, 104 0, 160 62 S 264 124, 320 62 S 424 0, 480, 62" fill="none" stroke="#ddd" style="opacity:0.054666666666667;stroke-width:12px;" transform="translate(-80, 147)" /><path d="M0 62 C 56 0, 104 0, 160 62 S 264 124, 320 62 S 424 0, 480, 62" fill="none" stroke="#ddd" style="opacity:0.054666666666667;stroke-width:12px;" transform="translate(-80, 579)" /><path d="M0 62 C 56 0, 104 0, 160 62 S 264 124, 320 62 S 424 0, 480, 62" fill="none" stroke="#222" style="opacity:0.098;stroke-width:12px;" transform="translate(-80, 159)" /><path d="M0 62 C 56 0, 104 0, 160 62 S 264 124, 320 62 S 424 0, 480, 62" fill="none" stroke="#222" style="opacity:0.098;stroke-width:12px;" transform="translate(-80, 591)" /><path d="M0 62 C 56 0, 104 0, 160 62 S 264 124, 320 62 S 424 0, 480, 62" fill="none" stroke="#ddd" style="opacity:0.02;stroke-width:12px;" transform="translate(-80, 171)" /><path d="M0 62 C 56 0, 104 0, 160 62 S 264 124, 320 62 S 424 0, 480, 62" fill="none" stroke="#ddd" style="opacity:0.02;stroke-width:12px;" transform="translate(-80, 603)" /><path d="M0 62 C 56 0, 104 0, 160 62 S 264 124, 320 62 S 424 0, 480, 62" fill="none" stroke="#ddd" style="opacity:0.089333333333333;stroke-width:12px;" transform="translate(-80, 183)" /><path d="M0 62 C 56 0, 104 0, 160 62 S 264 124, 320 62 S 424 0, 480, 62" fill="none" stroke="#ddd" style="opacity:0.089333333333333;stroke-width:12px;" transform="translate(-80, 615)" /><path d="M0 62 C 56 0, 104 0, 160 62 S 264 124, 320 62 S 424 0, 480, 62" fill="none" stroke="#ddd" style="opacity:0.037333333333333;stroke-width:12px;" transform="translate(-80, 195)" /><path d="M0 62 C 56 0, 104 0, 160 62 S 264 124, 320 62 S 424 0, 480, 62" fill="none" stroke="#ddd" style="opacity:0.037333333333333;stroke-width:12px;" transform="translate(-80, 627)" /><path d="M0 62 C 56 0, 104 0, 160 62 S 264 124, 320 62 S 424 0, 480, 62" fill="none" stroke="#222" style="opacity:0.063333333333333;stroke-width:12px;" transform="translate(-80, 207)" /><path d="M0 62 C 56 0, 104 0, 160 62 S 264 124, 320 62 S 424 0, 480, 62" fill="none" stroke="#222" style="opacity:0.063333333333333;stroke-width:12px;" transform="translate(-80, 639)" /><path d="M0 62 C 56 0, 104 0, 160 62 S 264 124, 320 62 S 424 0, 480, 62" fill="none" stroke="#ddd" style="opacity:0.072;stroke-width:12px;" transform="translate(-80, 219)" /><path d="M0 62 C 56 0, 104 0, 160 62 S 264 124, 320 62 S 424 0, 480, 62" fill="none" stroke="#ddd" style="opacity:0.072;stroke-width:12px;" transform="translate(-80, 651)" /><path d="M0 62 C 56 0, 104 0, 160 62 S 264 124, 320 62 S 424 0, 480, 62" fill="none" stroke="#ddd" style="opacity:0.037333333333333;stroke-width:12px;" transform="translate(-80, 231)" /><path d="M0 62 C 56 0, 104 0, 160 62 S 264 124, 320 62 S 424 0, 480, 62" fill="none" stroke="#ddd" style="opacity:0.037333333333333;stroke-width:12px;" transform="translate(-80, 663)" /><path d="M0 62 C 56 0, 104 0, 160 62 S 264 124, 320 62 S 424 0, 480, 62" fill="none" stroke="#ddd" style="opacity:0.072;stroke-width:12px;" transform="translate(-80, 243)" /><path d="M0 62 C 56 0, 104 0, 160 62 S 264 124, 320 62 S 424 0, 480, 62" fill="none" stroke="#ddd" style="opacity:0.072;stroke-width:12px;" transform="translate(-80, 675)" /><path d="M0 62 C 56 0, 104 0, 160 62 S 264 124, 320 62 S 424 0, 480, 62" fill="none" stroke="#ddd" style="opacity:0.14133333333333;stroke-width:12px;" transform="translate(-80, 255)" /><path d="M0 62 C 56 0, 104 0, 160 62 S 264 124, 320 62 S 424 0, 480, 62" fill="none" stroke="#ddd" style="opacity:0.14133333333333;stroke-width:12px;" transform="translate(-80, 687)" /><path d="M0 62 C 56 0, 104 0, 160 62 S 264 124, 320 62 S 424 0, 480, 62" fill="none" stroke="#ddd" style="opacity:0.02;stroke-width:12px;" transform="translate(-80, 267)" /><path d="M0 62 C 56 0, 104 0, 160 62 S 264 124, 320 62 S 424 0, 480, 62" fill="none" stroke="#ddd" style="opacity:0.02;stroke-width:12px;" transform="translate(-80, 699)" /><path d="M0 62 C 56 0, 104 0, 160 62 S 264 124, 320 62 S 424 0, 480, 62" fill="none" stroke="#ddd" style="opacity:0.089333333333333;stroke-width:12px;" transform="translate(-80, 279)" /><path d="M0 62 C 56 0, 104 0, 160 62 S 264 124, 320 62 S 424 0, 480, 62" fill="none" stroke="#ddd" style="opacity:0.089333333333333;stroke-width:12px;" transform="translate(-80, 711)" /><path d="M0 62 C 56 0, 104 0, 160 62 S 264 124, 320 62 S 424 0, 480, 62" fill="none" stroke="#ddd" style="opacity:0.089333333333333;stroke-width:12px;" transform="translate(-80, 291)" /><path d="M0 62 C 56 0, 104 0, 160 62 S 264 124, 320 62 S 424 0, 480, 62" fill="none" stroke="#ddd" style="opacity:0.089333333333333;stroke-width:12px;" transform="translate(-80, 723)" /><path d="M0 62 C 56 0, 104 0, 160 62 S 264 124, 320 62 S 424 0, 480, 62" fill="none" stroke="#ddd" style="opacity:0.02;stroke-width:12px;" transform="translate(-80, 303)" /><path d="M0 62 C 56 0, 104 0, 160 62 S 264 124, 320 62 S 424 0, 480, 62" fill="none" stroke="#ddd" style="opacity:0.02;stroke-width:12px;" transform="translate(-80, 735)" /><path d="M0 62 C 56 0, 104 0, 160 62 S 264 124, 320 62 S 424 0, 480, 62" fill="none" stroke="#222" style="opacity:0.11533333333333;stroke-width:12px;" transform="translate(-80, 315)" /><path d="M0 62 C 56 0, 104 0, 160 62 S 264 124, 320 62 S 424 0, 480, 62" fill="none" stroke="#222" style="opacity:0.11533333333333;stroke-width:12px;" transform="translate(-80, 747)" /><path d="M0 62 C 56 0, 104 0, 160 62 S 264 124, 320 62 S 424 0, 480, 62" fill="none" stroke="#222" style="opacity:0.046;stroke-width:12px;" transform="translate(-80, 327)" /><path d="M0 62 C 56 0, 104 0, 160 62 S 264 124, 320 62 S 424 0, 480, 62" fill="none" stroke="#222" style="opacity:0.046;stroke-width:12px;" transform="translate(-80, 759)" /></svg>