<?xml version="1.0"?><svg xmlns="http://www.w3.org/2000/svg" width="111" height="129"><rect x="0" y="0" width="100%" height="100%" fill="rgb(116, 185, 255)" /><rect x="-11.833333333333" y="-11.833333333333" width="23.666666666667" height="23.666666666667" stroke="#000" stroke-opacity="0.02" fill="#ddd" fill-opacity="0.089333333333333" stroke-width="1" /><rect x="100.15853577913" y="-11.833333333333" width="23.666666666667" height="23.666666666667" stroke="#000" stroke-opacity="0.02" fill="#ddd" fill-opacity="0.089333333333333" stroke-width="1" /><rect x="-11.833333333333" y="117.48373822493" width="23.666666666667" height="23.666666666667" stroke="#000" stroke-opacity="0.02" fill="#ddd" fill-opacity="0.089333333333333" stroke-width="1" /><rect x="100.15853577913" y="117.48373822493" width="23.666666666667" height="23.666666666667" stroke="#000" stroke-opacity="0.02" fill="#ddd" fill-opacity="0.089333333333333" stroke-width="1" /><rect x="44.162601222898" y="20.495934556232" width="23.666666666667" height="23.666666666667" stroke="#000" stroke-opacity="0.02" fill="#ddd" fill-opacity="0.072" stroke-width="1" /><rect x="-11.833333333333" y="52.825202445797" width="23.666666666667" height="23.666666666667" stroke="#000" stroke-opacity="0.02" fill="#222" fill-opacity="0.028666666666667" stroke-width="1" /><rect x="100.15853577913" y="52.825202445797" width="23.666666666667" height="23.666666666667" stroke="#000" stroke-opacity="0.02" fill="#222" fill-opacity="0.028666666666667" stroke-width="1" /><rect x="44.162601222898" y="85.154470335362" width="23.666666666667" height="23.666666666667" stroke="#000" stroke-opacity="0.02" fill="#222" fill-opacity="0.028666666666667" stroke-width="1" /><polyline points="0, 0, 20.495934556232, 11.833333333333, 0, 23.666666666667, 0, 0" stroke="#000" stroke-opacity="0.02" fill="#222" fill-opacity="0.046" stroke-width="1" transform="translate(11.833333333333, -11.833333333333) rotate(0, 11.833333333333, 10.247967278116)" /><polyline points="0, 0, 20.495934556232, 11.833333333333, 0, 23.666666666667, 0, 0" stroke="#000" stroke-opacity="0.02" fill="#222" fill-opacity="0.046" stroke-width="1" transform="translate(11.833333333333, 141.15040489159) rotate(0, 11.833333333333, 10.247967278116) scale(1, -1)" /><polyline points="0, 0, 20.495934556232, 11.833333333333, 0, 23.666666666667, 0, 0" stroke="#000" stroke-opacity="0.02" fill="#ddd" fill-opacity="0.089333333333333" stroke-width="1" transform="translate(100.15853577913, -11.833333333333) rotate(0, 11.833333333333, 10.247967278116) scale(-1, 1)" /><polyline points="0, 0, 20.495934556232, 11.833333333333, 0, 23.666666666667, 0, 0" stroke="#000" stroke-opacity="0.02" fill="#ddd" fill-opacity="0.089333333333333" stroke-width="1" transform="translate(100.15853577913, 141.15040489159) rotate(0, 11.833333333333, 10.247967278116) scale(-1, -1)" /><polyline points="0, 0, 20.495934556232, 11.833333333333, 0, 23.666666666667, 0, 0" stroke="#000" stroke-opacity="0.02" fill="#222" fill-opacity="0.098" stroke-width="1" transform="translate(67.829267889565, 20.495934556232)" /><polyline points="0, 0, 20.495934556232, 11.833333333333, 0, 23.666666666667, 0, 0" stroke="#000" stroke-opacity="0.02" fill="#222" fill-opacity="0.15" stroke-width="1" transform="translate(44.162601222898, 20.495934556232) scale(-1, 1)" /><polyline points="0, 0, 20.495934556232, 11.833333333333, 0, 23.666666666667, 0, 0" stroke="#000" stroke-opacity="0.02" fill="#222" fill-opacity="0.098" stroke-width="1" transform="translate(67.829267889565, 108.82113700203) scale(1, -1)" /><polyline points="0, 0, 20.495934556232, 11.833333333333, 0, 23.666666666667, 0, 0" stroke="#000" stroke-opacity="0.02" fill="#222" fill-opacity="0.063333333333333" stroke-width="1" transform="translate(44.162601222898, 108.82113700203) scale(-1, -1)" /><polyline points="0, 0, 20.495934556232, 11.833333333333, 0, 23.666666666667, 0, 0" stroke="#000" stroke-opacity="0.02" fill="#ddd" fill-opacity="0.037333333333333" stroke-width="1" transform="translate(11.833333333333, 52.825202445797)" /><polyline points="0, 0, 20.495934556232, 11.833333333333, 0, 23.666666666667, 0, 0" stroke="#000" stroke-opacity="0.02" fill="#222" fill-opacity="0.13266666666667" stroke-width="1" transform="translate(100.15853577913, 52.825202445797) scale(-1, 1)" /><rect x="0" y="0" width="23.666666666667" height="23.666666666667" stroke="#000" stroke-opacity="0.02" fill="#222" fill-opacity="0.063333333333333" stroke-width="1" transform="translate(11.833333333333, 11.833333333333) rotate(-30, 0, 0)" /><rect x="0" y="0" width="23.666666666667" height="23.666666666667" stroke="#000" stroke-opacity="0.02" fill="#ddd" fill-opacity="0.02" stroke-width="1" transform="scale(-1, 1) translate(-100.15853577913, 11.833333333333) rotate(-30, 0, 0)" /><rect x="0" y="0" width="23.666666666667" height="23.666666666667" stroke="#000" stroke-opacity="0.02" fill="#ddd" fill-opacity="0.072" stroke-width="1" transform="translate(11.833333333333, 29.15853577913) rotate(30, 0, 23.666666666667)" /><rect x="0" y="0" width="23.666666666667" height="23.666666666667" stroke="#000" stroke-opacity="0.02" fill="#222" fill-opacity="0.13266666666667" stroke-width="1" transform="scale(-1, 1) translate(-100.15853577913, 29.15853577913) rotate(30, 0, 23.666666666667)" /><rect x="0" y="0" width="23.666666666667" height="23.666666666667" stroke="#000" stroke-opacity="0.02" fill="#ddd" fill-opacity="0.037333333333333" stroke-width="1" transform="scale(1, -1) translate(11.833333333333, -100.15853577913) rotate(30, 0, 23.666666666667)" /><rect x="0" y="0" width="23.666666666667" height="23.666666666667" stroke="#000" stroke-opacity="0.02" fill="#ddd" fill-opacity="0.037333333333333" stroke-width="1" transform="scale(-1, -1) translate(-100.15853577913, -100.15853577913) rotate(30, 0, 23.666666666667)" /><rect x="0" y="0" width="23.666666666667" height="23.666666666667" stroke="#000" stroke-opacity="0.02" fill="#222" fill-opacity="0.028666666666667" stroke-width="1" transform="scale(1, -1) translate(11.833333333333, -117.48373822493) rotate(-30, 0, 0)" /><rect x="0" y="0" width="23.666666666667" height="23.666666666667" stroke="#000" stroke-opacity="0.02" fill="#222" fill-opacity="0.13266666666667" stroke-width="1" transform="scale(-1, -1) translate(-100.15853577913, -117.48373822493) rotate(-30, 0, 0)" /></svg>